<?xml version="1.0" encoding="UTF-8"?><svg xmlns="http://www.w3.org/2000/svg" xmlns:xlink="http://www.w3.org/1999/xlink" viewBox="0 0 800 800"><defs><style>.cls-1{fill:url(#linear-gradient-3);}.cls-2{fill:url(#linear-gradient-2);}.cls-3{fill:url(#linear-gradient);}</style><linearGradient id="linear-gradient" x1="133.17" y1="440.4" x2="543.11" y2="440.4" gradientUnits="userSpaceOnUse"><stop offset="0" stop-color="#64cceb"/><stop offset="1" stop-color="#1ea5d6"/></linearGradient><linearGradient id="linear-gradient-2" x1="133.17" y1="322.02" x2="679.85" y2="322.02" gradientUnits="userSpaceOnUse"><stop offset="0" stop-color="#f7931e"/><stop offset="1" stop-color="#f7ec2e"/></linearGradient><linearGradient id="linear-gradient-3" x1="269.82" y1="440.4" x2="679.85" y2="440.4" gradientUnits="userSpaceOnUse"><stop offset="0" stop-color="#ba2e2c"/><stop offset="1" stop-color="#f0484a"/></linearGradient></defs><g id="SideX"><polygon class="cls-3" points="133.17 85.26 269.82 164.18 269.85 243.1 543.11 400.94 543.11 558.78 269.82 400.94 269.82 558.78 406.54 637.7 406.54 795.54 133.17 637.7 133.17 85.26"/></g><g id="SideY"><path class="cls-2" d="M269.82,164.18l-136.65-78.92L269.82,6.34l136.72,78.92-136.72,78.92ZM406.54,637.7l136.58-78.92-136.58-78.88-136.72,78.88,136.72,78.92ZM269.85,243.1l273.26,157.84,136.74-78.92-273.31-157.84-136.68,78.92Z"/></g><g id="SideZ"><path class="cls-1" d="M406.54,85.26v78.92l-136.68,78.92-.03-78.92,136.72-78.92ZM269.82,400.94v157.84l136.72-78.88-136.72-78.96ZM406.54,637.7v157.84l273.31-157.84v-315.68l-136.74,78.92.08,157.84-136.66,78.92Z"/></g></svg>